<svg height='100px' width='100px'  fill="#2d2d2d" xmlns="http://www.w3.org/2000/svg" xmlns:xlink="http://www.w3.org/1999/xlink" xmlns:serif="http://www.serif.com/" viewBox="0 0 32 32" version="1.1" xml:space="preserve" style="" x="0px" y="0px" fill-rule="evenodd" clip-rule="evenodd" stroke-linejoin="round" stroke-miterlimit="2"><path d="M31,2c0,-0.552 -0.448,-1 -1,-1l-28,0c-0.552,0 -1,0.448 -1,1l-0,28c-0,0.552 0.448,1 1,1l28,0c0.552,0 1,-0.448 1,-1l0,-28Zm-2,1l0,26c0,0 -26,0 -26,0c-0,0 -0,-26 -0,-26l26,-0Zm-23.864,20.496c-0.18,0.309 -0.181,0.692 -0.003,1.002c0.178,0.311 0.509,0.502 0.867,0.502l20,0c0.371,0 0.712,-0.206 0.885,-0.534c0.173,-0.329 0.149,-0.727 -0.061,-1.033l-5.5,-8c-0.187,-0.271 -0.495,-0.433 -0.824,-0.433c-0.329,-0 -0.637,0.162 -0.824,0.433l-1.902,2.767c0,-0 -3.91,-6.704 -3.91,-6.704c-0.179,-0.307 -0.508,-0.496 -0.864,-0.496c-0.356,-0 -0.685,0.189 -0.864,0.496l-7,12Zm2.605,-0.496l5.259,-9.015c0,-0 3.841,6.584 3.841,6.584c0.173,0.296 0.485,0.483 0.827,0.496c0.342,0.013 0.667,-0.151 0.861,-0.433l1.971,-2.867c-0,0 3.599,5.235 3.599,5.235l-16.358,-0Zm12.759,-16c-1.656,0 -3,1.344 -3,3c0,1.656 1.344,3 3,3c1.656,0 3,-1.344 3,-3c0,-1.656 -1.344,-3 -3,-3Zm0,2c0.552,0 1,0.448 1,1c0,0.552 -0.448,1 -1,1c-0.552,0 -1,-0.448 -1,-1c0,-0.552 0.448,-1 1,-1Z"></path></svg>