<svg height='100px' width='100px'  fill="#2d2d2d" xmlns="http://www.w3.org/2000/svg" xmlns:xlink="http://www.w3.org/1999/xlink" version="1.1" x="0px" y="0px" viewBox="0 0 100 100" enable-background="new 0 0 100 100" xml:space="preserve"><g><g><g><path d="M88.07,78.68H11.93V21.32H88.07V78.68z M12.93,77.68H87.07V22.32H12.93V77.68z M82.271,71.65H18.457V28.359h63.814V71.65     z M19.457,70.65h61.814V29.359H19.457V70.65z"></path></g></g><g><g><path d="M62.476,67.003H50.847V52.762h11.629V67.003z"></path></g><g><path d="M76.428,67.008h-11.84v-14.25h11.84V67.008z M65.588,66.008h9.84v-12.25h-9.84V66.008z"></path></g></g><g><g><path d="M38.076,61.732"></path></g><path d="M23.568,32.992v34.01h24.775v-34.01H23.568z M47.332,34.004v25.827l-4.49-4.239l-4.658,4.666l-7.346-9.287L24.58,61.497    V34.004H47.332z"></path></g><g><g><g><path d="M41.387,51.611c-0.967,0-1.75-0.787-1.75-1.752c0-0.967,0.783-1.752,1.75-1.752s1.754,0.785,1.754,1.752      C43.141,50.824,42.354,51.611,41.387,51.611z M41.387,49.107c-0.414,0-0.75,0.338-0.75,0.752s0.336,0.752,0.75,0.752      s0.754-0.338,0.754-0.752S41.801,49.107,41.387,49.107z"></path></g></g><g><g><rect x="40.99" y="46.035" width="1" height="1.469"></rect></g></g><g><g><rect x="40.99" y="52.215" width="1" height="1.469"></rect></g></g><g><g><rect x="37.578" y="49.359" width="1.469" height="1"></rect></g></g><g><g><rect x="43.729" y="49.359" width="1.469" height="1"></rect></g></g><g><g><rect x="38.601" y="47.145" transform="matrix(0.7071 0.7071 -0.7071 0.7071 45.211 -13.8599)" width="1.469" height="1"></rect></g></g><g><g><rect x="42.97" y="51.514" transform="matrix(0.7064 0.7078 -0.7078 0.7064 49.6435 -15.6635)" width="1.468" height="1"></rect></g></g><g><g><rect x="38.774" y="51.342" transform="matrix(0.7071 0.7071 -0.7071 0.7071 48.3259 -12.5187)" width="1" height="1.467"></rect></g></g><g><g><rect x="43.123" y="46.992" transform="matrix(0.7071 0.7071 -0.7071 0.7071 46.5247 -16.8674)" width="1" height="1.469"></rect></g></g></g><g><path d="M64.33,39.967c-0.662,0-1.201,0.539-1.201,1.201c0,0.664,0.539,1.205,1.201,1.205c0.666,0,1.205-0.541,1.205-1.205    C65.535,40.506,64.996,39.967,64.33,39.967z"></path><path d="M50.854,32.994v17.362h25.57V32.994H50.854z M68.176,36.357l1.133,1.131l-1.664,1.662l-1.133-1.131L68.176,36.357z     M63.695,35.047h1.6v2.352h-1.6V35.047z M60.781,36.225l1.662,1.662l-1.133,1.133l-1.662-1.664L60.781,36.225z M58.232,40.367    h2.35v1.602h-2.35V40.367z M60.682,46.115l-1.133-1.133l1.664-1.662l1.133,1.133L60.682,46.115z M65.295,47.293h-1.6v-2.354h1.6    V47.293z M64.33,43.975c-1.547,0-2.803-1.26-2.803-2.807s1.256-2.803,2.803-2.803c1.549,0,2.807,1.256,2.807,2.803    S65.879,43.975,64.33,43.975z M68.309,46.016l-1.664-1.664l1.131-1.131l1.664,1.664L68.309,46.016z M70.432,41.969H68.08v-1.602    h2.352V41.969z"></path></g></g></svg>